<mxfile host="app.diagrams.net" modified="2024-01-16T08:58:22.312Z" agent="Mozilla/5.0 (Macintosh; Intel Mac OS X 10_15_7) AppleWebKit/537.36 (KHTML, like Gecko) Chrome/120.0.0.0 Safari/537.36" etag="M0UiS9wSzHo634HObGfS" version="22.1.18" type="github">
  <diagram id="C5RBs43oDa-KdzZeNtuy" name="Page-1">
    <mxGraphModel dx="954" dy="501" grid="1" gridSize="10" guides="1" tooltips="1" connect="1" arrows="1" fold="1" page="1" pageScale="1" pageWidth="827" pageHeight="1169" math="0" shadow="0">
      <root>
        <mxCell id="WIyWlLk6GJQsqaUBKTNV-0" />
        <mxCell id="WIyWlLk6GJQsqaUBKTNV-1" parent="WIyWlLk6GJQsqaUBKTNV-0" />
        <mxCell id="zkfFHV4jXpPFQw0GAbJ--0" value="Person" style="swimlane;fontStyle=2;align=center;verticalAlign=top;childLayout=stackLayout;horizontal=1;startSize=26;horizontalStack=0;resizeParent=1;resizeLast=0;collapsible=1;marginBottom=0;rounded=0;shadow=0;strokeWidth=1;" parent="WIyWlLk6GJQsqaUBKTNV-1" vertex="1">
          <mxGeometry x="220" y="120" width="160" height="138" as="geometry">
            <mxRectangle x="230" y="140" width="160" height="26" as="alternateBounds" />
          </mxGeometry>
        </mxCell>
        <mxCell id="zkfFHV4jXpPFQw0GAbJ--1" value="Name" style="text;align=left;verticalAlign=top;spacingLeft=4;spacingRight=4;overflow=hidden;rotatable=0;points=[[0,0.5],[1,0.5]];portConstraint=eastwest;" parent="zkfFHV4jXpPFQw0GAbJ--0" vertex="1">
          <mxGeometry y="26" width="160" height="26" as="geometry" />
        </mxCell>
        <mxCell id="zkfFHV4jXpPFQw0GAbJ--2" value="Phone Number" style="text;align=left;verticalAlign=top;spacingLeft=4;spacingRight=4;overflow=hidden;rotatable=0;points=[[0,0.5],[1,0.5]];portConstraint=eastwest;rounded=0;shadow=0;html=0;" parent="zkfFHV4jXpPFQw0GAbJ--0" vertex="1">
          <mxGeometry y="52" width="160" height="26" as="geometry" />
        </mxCell>
        <mxCell id="zkfFHV4jXpPFQw0GAbJ--3" value="Email Address" style="text;align=left;verticalAlign=top;spacingLeft=4;spacingRight=4;overflow=hidden;rotatable=0;points=[[0,0.5],[1,0.5]];portConstraint=eastwest;rounded=0;shadow=0;html=0;" parent="zkfFHV4jXpPFQw0GAbJ--0" vertex="1">
          <mxGeometry y="78" width="160" height="26" as="geometry" />
        </mxCell>
        <mxCell id="zkfFHV4jXpPFQw0GAbJ--4" value="" style="line;html=1;strokeWidth=1;align=left;verticalAlign=middle;spacingTop=-1;spacingLeft=3;spacingRight=3;rotatable=0;labelPosition=right;points=[];portConstraint=eastwest;" parent="zkfFHV4jXpPFQw0GAbJ--0" vertex="1">
          <mxGeometry y="104" width="160" height="8" as="geometry" />
        </mxCell>
        <mxCell id="zkfFHV4jXpPFQw0GAbJ--5" value="Purchase Parking Pass" style="text;align=left;verticalAlign=top;spacingLeft=4;spacingRight=4;overflow=hidden;rotatable=0;points=[[0,0.5],[1,0.5]];portConstraint=eastwest;" parent="zkfFHV4jXpPFQw0GAbJ--0" vertex="1">
          <mxGeometry y="112" width="160" height="26" as="geometry" />
        </mxCell>
        <mxCell id="zkfFHV4jXpPFQw0GAbJ--6" value="Student" style="swimlane;fontStyle=0;align=center;verticalAlign=top;childLayout=stackLayout;horizontal=1;startSize=26;horizontalStack=0;resizeParent=1;resizeLast=0;collapsible=1;marginBottom=0;rounded=0;shadow=0;strokeWidth=1;" parent="WIyWlLk6GJQsqaUBKTNV-1" vertex="1">
          <mxGeometry x="120" y="360" width="160" height="138" as="geometry">
            <mxRectangle x="130" y="380" width="160" height="26" as="alternateBounds" />
          </mxGeometry>
        </mxCell>
        <mxCell id="zkfFHV4jXpPFQw0GAbJ--7" value="Student Number" style="text;align=left;verticalAlign=top;spacingLeft=4;spacingRight=4;overflow=hidden;rotatable=0;points=[[0,0.5],[1,0.5]];portConstraint=eastwest;" parent="zkfFHV4jXpPFQw0GAbJ--6" vertex="1">
          <mxGeometry y="26" width="160" height="26" as="geometry" />
        </mxCell>
        <mxCell id="zkfFHV4jXpPFQw0GAbJ--8" value="Average Mark" style="text;align=left;verticalAlign=top;spacingLeft=4;spacingRight=4;overflow=hidden;rotatable=0;points=[[0,0.5],[1,0.5]];portConstraint=eastwest;rounded=0;shadow=0;html=0;" parent="zkfFHV4jXpPFQw0GAbJ--6" vertex="1">
          <mxGeometry y="52" width="160" height="26" as="geometry" />
        </mxCell>
        <mxCell id="zkfFHV4jXpPFQw0GAbJ--9" value="" style="line;html=1;strokeWidth=1;align=left;verticalAlign=middle;spacingTop=-1;spacingLeft=3;spacingRight=3;rotatable=0;labelPosition=right;points=[];portConstraint=eastwest;" parent="zkfFHV4jXpPFQw0GAbJ--6" vertex="1">
          <mxGeometry y="78" width="160" height="8" as="geometry" />
        </mxCell>
        <mxCell id="zkfFHV4jXpPFQw0GAbJ--10" value="Is Eligible To Enroll" style="text;align=left;verticalAlign=top;spacingLeft=4;spacingRight=4;overflow=hidden;rotatable=0;points=[[0,0.5],[1,0.5]];portConstraint=eastwest;fontStyle=4" parent="zkfFHV4jXpPFQw0GAbJ--6" vertex="1">
          <mxGeometry y="86" width="160" height="26" as="geometry" />
        </mxCell>
        <mxCell id="zkfFHV4jXpPFQw0GAbJ--11" value="Get Seminars Taken" style="text;align=left;verticalAlign=top;spacingLeft=4;spacingRight=4;overflow=hidden;rotatable=0;points=[[0,0.5],[1,0.5]];portConstraint=eastwest;" parent="zkfFHV4jXpPFQw0GAbJ--6" vertex="1">
          <mxGeometry y="112" width="160" height="26" as="geometry" />
        </mxCell>
        <mxCell id="zkfFHV4jXpPFQw0GAbJ--12" value="" style="endArrow=block;endSize=10;endFill=0;shadow=0;strokeWidth=1;rounded=0;edgeStyle=elbowEdgeStyle;elbow=vertical;" parent="WIyWlLk6GJQsqaUBKTNV-1" source="zkfFHV4jXpPFQw0GAbJ--6" target="zkfFHV4jXpPFQw0GAbJ--0" edge="1">
          <mxGeometry width="160" relative="1" as="geometry">
            <mxPoint x="200" y="203" as="sourcePoint" />
            <mxPoint x="200" y="203" as="targetPoint" />
          </mxGeometry>
        </mxCell>
        <mxCell id="zkfFHV4jXpPFQw0GAbJ--13" value="Professor" style="swimlane;fontStyle=0;align=center;verticalAlign=top;childLayout=stackLayout;horizontal=1;startSize=26;horizontalStack=0;resizeParent=1;resizeLast=0;collapsible=1;marginBottom=0;rounded=0;shadow=0;strokeWidth=1;" parent="WIyWlLk6GJQsqaUBKTNV-1" vertex="1">
          <mxGeometry x="330" y="360" width="160" height="70" as="geometry">
            <mxRectangle x="340" y="380" width="170" height="26" as="alternateBounds" />
          </mxGeometry>
        </mxCell>
        <mxCell id="zkfFHV4jXpPFQw0GAbJ--14" value="Salary" style="text;align=left;verticalAlign=top;spacingLeft=4;spacingRight=4;overflow=hidden;rotatable=0;points=[[0,0.5],[1,0.5]];portConstraint=eastwest;" parent="zkfFHV4jXpPFQw0GAbJ--13" vertex="1">
          <mxGeometry y="26" width="160" height="26" as="geometry" />
        </mxCell>
        <mxCell id="zkfFHV4jXpPFQw0GAbJ--15" value="" style="line;html=1;strokeWidth=1;align=left;verticalAlign=middle;spacingTop=-1;spacingLeft=3;spacingRight=3;rotatable=0;labelPosition=right;points=[];portConstraint=eastwest;" parent="zkfFHV4jXpPFQw0GAbJ--13" vertex="1">
          <mxGeometry y="52" width="160" height="8" as="geometry" />
        </mxCell>
        <mxCell id="zkfFHV4jXpPFQw0GAbJ--16" value="" style="endArrow=block;endSize=10;endFill=0;shadow=0;strokeWidth=1;rounded=0;edgeStyle=elbowEdgeStyle;elbow=vertical;" parent="WIyWlLk6GJQsqaUBKTNV-1" source="zkfFHV4jXpPFQw0GAbJ--13" target="zkfFHV4jXpPFQw0GAbJ--0" edge="1">
          <mxGeometry width="160" relative="1" as="geometry">
            <mxPoint x="210" y="373" as="sourcePoint" />
            <mxPoint x="310" y="271" as="targetPoint" />
          </mxGeometry>
        </mxCell>
        <mxCell id="zkfFHV4jXpPFQw0GAbJ--17" value="Address" style="swimlane;fontStyle=0;align=center;verticalAlign=top;childLayout=stackLayout;horizontal=1;startSize=26;horizontalStack=0;resizeParent=1;resizeLast=0;collapsible=1;marginBottom=0;rounded=0;shadow=0;strokeWidth=1;" parent="WIyWlLk6GJQsqaUBKTNV-1" vertex="1">
          <mxGeometry x="508" y="120" width="160" height="216" as="geometry">
            <mxRectangle x="550" y="140" width="160" height="26" as="alternateBounds" />
          </mxGeometry>
        </mxCell>
        <mxCell id="zkfFHV4jXpPFQw0GAbJ--18" value="Street" style="text;align=left;verticalAlign=top;spacingLeft=4;spacingRight=4;overflow=hidden;rotatable=0;points=[[0,0.5],[1,0.5]];portConstraint=eastwest;" parent="zkfFHV4jXpPFQw0GAbJ--17" vertex="1">
          <mxGeometry y="26" width="160" height="26" as="geometry" />
        </mxCell>
        <mxCell id="zkfFHV4jXpPFQw0GAbJ--19" value="City" style="text;align=left;verticalAlign=top;spacingLeft=4;spacingRight=4;overflow=hidden;rotatable=0;points=[[0,0.5],[1,0.5]];portConstraint=eastwest;rounded=0;shadow=0;html=0;" parent="zkfFHV4jXpPFQw0GAbJ--17" vertex="1">
          <mxGeometry y="52" width="160" height="26" as="geometry" />
        </mxCell>
        <mxCell id="zkfFHV4jXpPFQw0GAbJ--20" value="State" style="text;align=left;verticalAlign=top;spacingLeft=4;spacingRight=4;overflow=hidden;rotatable=0;points=[[0,0.5],[1,0.5]];portConstraint=eastwest;rounded=0;shadow=0;html=0;" parent="zkfFHV4jXpPFQw0GAbJ--17" vertex="1">
          <mxGeometry y="78" width="160" height="26" as="geometry" />
        </mxCell>
        <mxCell id="zkfFHV4jXpPFQw0GAbJ--21" value="Postal Code" style="text;align=left;verticalAlign=top;spacingLeft=4;spacingRight=4;overflow=hidden;rotatable=0;points=[[0,0.5],[1,0.5]];portConstraint=eastwest;rounded=0;shadow=0;html=0;" parent="zkfFHV4jXpPFQw0GAbJ--17" vertex="1">
          <mxGeometry y="104" width="160" height="26" as="geometry" />
        </mxCell>
        <mxCell id="zkfFHV4jXpPFQw0GAbJ--22" value="Country" style="text;align=left;verticalAlign=top;spacingLeft=4;spacingRight=4;overflow=hidden;rotatable=0;points=[[0,0.5],[1,0.5]];portConstraint=eastwest;rounded=0;shadow=0;html=0;" parent="zkfFHV4jXpPFQw0GAbJ--17" vertex="1">
          <mxGeometry y="130" width="160" height="26" as="geometry" />
        </mxCell>
        <mxCell id="zkfFHV4jXpPFQw0GAbJ--23" value="" style="line;html=1;strokeWidth=1;align=left;verticalAlign=middle;spacingTop=-1;spacingLeft=3;spacingRight=3;rotatable=0;labelPosition=right;points=[];portConstraint=eastwest;" parent="zkfFHV4jXpPFQw0GAbJ--17" vertex="1">
          <mxGeometry y="156" width="160" height="8" as="geometry" />
        </mxCell>
        <mxCell id="zkfFHV4jXpPFQw0GAbJ--24" value="Validate" style="text;align=left;verticalAlign=top;spacingLeft=4;spacingRight=4;overflow=hidden;rotatable=0;points=[[0,0.5],[1,0.5]];portConstraint=eastwest;" parent="zkfFHV4jXpPFQw0GAbJ--17" vertex="1">
          <mxGeometry y="164" width="160" height="26" as="geometry" />
        </mxCell>
        <mxCell id="zkfFHV4jXpPFQw0GAbJ--25" value="Output As Label" style="text;align=left;verticalAlign=top;spacingLeft=4;spacingRight=4;overflow=hidden;rotatable=0;points=[[0,0.5],[1,0.5]];portConstraint=eastwest;" parent="zkfFHV4jXpPFQw0GAbJ--17" vertex="1">
          <mxGeometry y="190" width="160" height="26" as="geometry" />
        </mxCell>
        <mxCell id="zkfFHV4jXpPFQw0GAbJ--26" value="" style="endArrow=open;shadow=0;strokeWidth=1;rounded=0;endFill=1;edgeStyle=elbowEdgeStyle;elbow=vertical;" parent="WIyWlLk6GJQsqaUBKTNV-1" source="zkfFHV4jXpPFQw0GAbJ--0" target="zkfFHV4jXpPFQw0GAbJ--17" edge="1">
          <mxGeometry x="0.5" y="41" relative="1" as="geometry">
            <mxPoint x="380" y="192" as="sourcePoint" />
            <mxPoint x="540" y="192" as="targetPoint" />
            <mxPoint x="-40" y="32" as="offset" />
          </mxGeometry>
        </mxCell>
        <mxCell id="zkfFHV4jXpPFQw0GAbJ--27" value="0..1" style="resizable=0;align=left;verticalAlign=bottom;labelBackgroundColor=none;fontSize=12;" parent="zkfFHV4jXpPFQw0GAbJ--26" connectable="0" vertex="1">
          <mxGeometry x="-1" relative="1" as="geometry">
            <mxPoint y="4" as="offset" />
          </mxGeometry>
        </mxCell>
        <mxCell id="zkfFHV4jXpPFQw0GAbJ--28" value="1" style="resizable=0;align=right;verticalAlign=bottom;labelBackgroundColor=none;fontSize=12;" parent="zkfFHV4jXpPFQw0GAbJ--26" connectable="0" vertex="1">
          <mxGeometry x="1" relative="1" as="geometry">
            <mxPoint x="-7" y="4" as="offset" />
          </mxGeometry>
        </mxCell>
        <mxCell id="zkfFHV4jXpPFQw0GAbJ--29" value="lives at" style="text;html=1;resizable=0;points=[];;align=center;verticalAlign=middle;labelBackgroundColor=none;rounded=0;shadow=0;strokeWidth=1;fontSize=12;" parent="zkfFHV4jXpPFQw0GAbJ--26" vertex="1" connectable="0">
          <mxGeometry x="0.5" y="49" relative="1" as="geometry">
            <mxPoint x="-38" y="40" as="offset" />
          </mxGeometry>
        </mxCell>
        <UserObject label="" plantUmlData="{&#xa;  &quot;data&quot;: &quot;from typing import List\n\nclass TypePokemon:\n    def __init__(self, nom: str):\n        self.nom = nom\n\nclass Pokemon:\n    def __init__(self, nom: str, pointsDeVie: int, niveau: int, puissanceAttaque: int, defense: int, types: List[TypePokemon]):\n        self.nom = nom\n        self.pointsDeVie = pointsDeVie\n        self.niveau = niveau\n        self.puissanceAttaque = puissanceAttaque\n        self.defense = defense\n        self.types = types\n\n    def evoluer(self):\n        # Implémentation de l&#39;évolution du Pokémon\n        pass\n\nclass Combat:\n    def __init__(self, pokemonJoueur: Pokemon, pokemonAdversaire: Pokemon):\n        self.pokemonJoueur = pokemonJoueur\n        self.pokemonAdversaire = pokemonAdversaire\n\n    def getPuissanceAttaqueAdversaire(self, typeAdversaire: TypePokemon) -&gt; int:\n        # Implémentation de la récupération de la puissance d&#39;attaque de l&#39;adversaire\n        pass\n\n    def enleverPointsDeVie(self, defenseAdversaire: int):\n        # Implémentation de la réduction des points de vie en fonction de la défense\n        pass\n\n    def determinerVainqueur(self) -&gt; str:\n        # Implémentation de la logique pour déterminer le vainqueur\n        pass\n\n    def enregistrerDansPokedex(self, pokedex):\n        # Implémentation de l&#39;enregistrement dans le Pokédex\n        pass\n\nclass Pokedex:\n    def __init__(self):\n        self.listePokemons = []\n\n    def afficherListePokemons(self):\n        # Implémentation de l&#39;affichage de la liste des Pokémon dans le Pokédex\n        pass\n\n    def enregistrerPokemon(self, pokemon: Pokemon):\n        # Implémentation de l&#39;enregistrement d&#39;un Pokémon dans le Pokédex\n        pass\n\nclass Menu:\n    def lancerPartie(self):\n        # Implémentation du lancement d&#39;une partie\n        pass\n\n    def ajouterPokemon(self, pokemon: Pokemon, fichier: str):\n        # Implémentation de l&#39;ajout d&#39;un Pokémon au fichier \&quot;pokemon.json\&quot;\n        pass\n\n    def accederPokedex(self, pokedex):\n        # Implémentation de l&#39;accès au Pokédex\n        pass\n&quot;,&#xa;  &quot;format&quot;: &quot;svg&quot;&#xa;}" id="nK76cGi7IdD_Ol3fB3Zy-0">
          <mxCell style="shape=image;noLabel=1;verticalAlign=top;aspect=fixed;imageAspect=0;image=data:image/svg+xml,PD94bWwgdmVyc2lvbj0iMS4wIiBlbmNvZGluZz0idXMtYXNjaWkiIHN0YW5kYWxvbmU9Im5vIj8+PHN2ZyB4bWxucz0iaHR0cDovL3d3dy53My5vcmcvMjAwMC9zdmciIHhtbG5zOnhsaW5rPSJodHRwOi8vd3d3LnczLm9yZy8xOTk5L3hsaW5rIiBjb250ZW50U3R5bGVUeXBlPSJ0ZXh0L2NzcyIgaGVpZ2h0PSIxMTJweCIgcHJlc2VydmVBc3BlY3RSYXRpbz0ibm9uZSIgc3R5bGU9IndpZHRoOjE3OHB4O2hlaWdodDoxMTJweDtiYWNrZ3JvdW5kOiMwMDAwMDA7IiB2ZXJzaW9uPSIxLjEiIHZpZXdCb3g9IjAgMCAxNzggMTEyIiB3aWR0aD0iMTc4cHgiIHpvb21BbmRQYW49Im1hZ25pZnkiPjxkZWZzLz48Zz48cmVjdCBmaWxsPSIjMjAxOTFGIiBoZWlnaHQ9IjEiIHN0eWxlPSJzdHJva2U6IzIwMTkxRjtzdHJva2Utd2lkdGg6MS4wOyIgd2lkdGg9IjEiIHg9IjAiIHk9IjAiLz48dGV4dCBmaWxsPSIjMzNGRjAyIiBmb250LWZhbWlseT0ic2Fucy1zZXJpZiIgZm9udC1zaXplPSIxMiIgZm9udC1zdHlsZT0iaXRhbGljIiBmb250LXdlaWdodD0iYm9sZCIgbGVuZ3RoQWRqdXN0PSJzcGFjaW5nIiB0ZXh0TGVuZ3RoPSIxMTMiIHg9IjUiIHk9IjE3Ij5QbGFudFVNTCAxLjIwMjMuMTM8L3RleHQ+PHJlY3QgZmlsbD0iIzMzRkYwMiIgaGVpZ2h0PSIxOS45ODQ0IiBzdHlsZT0ic3Ryb2tlOiMzM0ZGMDI7c3Ryb2tlLXdpZHRoOjEuMDsiIHdpZHRoPSIxNjYiIHg9IjUiIHk9IjI1Ljg0MzgiLz48dGV4dCBmaWxsPSIjMDAwMDAwIiBmb250LWZhbWlseT0ic2Fucy1zZXJpZiIgZm9udC1zaXplPSIxNCIgZm9udC13ZWlnaHQ9ImJvbGQiIGxlbmd0aEFkanVzdD0ic3BhY2luZyIgdGV4dExlbmd0aD0iMTY0IiB4PSI2IiB5PSI0MC44NDM4Ij5bRnJvbSBzdHJpbmcgKGxpbmUgMikgXTwvdGV4dD48dGV4dCBmaWxsPSIjMzNGRjAyIiBmb250LWZhbWlseT0ic2Fucy1zZXJpZiIgZm9udC1zaXplPSIxNCIgZm9udC13ZWlnaHQ9ImJvbGQiIGxlbmd0aEFkanVzdD0ic3BhY2luZyIgdGV4dExlbmd0aD0iNyIgeD0iNSIgeT0iNTkuODI4MSI+JiMxNjA7PC90ZXh0Pjx0ZXh0IGZpbGw9IiMzM0ZGMDIiIGZvbnQtZmFtaWx5PSJzYW5zLXNlcmlmIiBmb250LXNpemU9IjE0IiBmb250LXdlaWdodD0iYm9sZCIgbGVuZ3RoQWRqdXN0PSJzcGFjaW5nIiB0ZXh0TGVuZ3RoPSI2NCIgeD0iNSIgeT0iNzQuODEyNSI+QHN0YXJ0dW1sPC90ZXh0Pjx0ZXh0IGZpbGw9IiMzM0ZGMDIiIGZvbnQtZmFtaWx5PSJzYW5zLXNlcmlmIiBmb250LXNpemU9IjE0IiBmb250LXdlaWdodD0iYm9sZCIgbGVuZ3RoQWRqdXN0PSJzcGFjaW5nIiB0ZXh0LWRlY29yYXRpb249IndhdnkgdW5kZXJsaW5lIiB0ZXh0TGVuZ3RoPSIxNjMiIHg9IjUiIHk9Ijg5Ljc5NjkiPmZyb20gdHlwaW5nIGltcG9ydCBMaXN0PC90ZXh0Pjx0ZXh0IGZpbGw9IiNGRjAwMDAiIGZvbnQtZmFtaWx5PSJzYW5zLXNlcmlmIiBmb250LXNpemU9IjE0IiBmb250LXdlaWdodD0iYm9sZCIgbGVuZ3RoQWRqdXN0PSJzcGFjaW5nIiB0ZXh0TGVuZ3RoPSI5MSIgeD0iMTIiIHk9IjEwNC43ODEzIj5TeW50YXggRXJyb3I/PC90ZXh0PjwhLS1TUkM9W2RMTEJSamltNER0eDU4RHF1SGZtU20wM0JIMHFjbk9mdTRNSEpIME9oM0hJY0tnYW1lX0h0QVctWG94TTZPZ0lBQzZnWk1lWmFKRHlWRkZjM0xHT05PRHhRd0dnR1RRRERXdVVmN01oTExPOVEtN3hNdUR4X0dqaGhOT2hlMlY3MFd1N2dRR3g3RHZSaDhlakE1dGxtM2dwd0pCdXVTMGp4U0Q3WmxQV3JtOWplVDVJRU5rRlpuOXRHOXlLYXFTS0ZZdVFCd3FMQWlDeHZ5SWh4dEM4NGZOakxyR0tzYnNldllhZnV0Y1B2Y0d4ZUszWFAzS3g3TlduR0ZZT09TbnVDajFpUXRlV0xhMXZ5TWlRM1lMSENCbk5XdW51cjlMNzRySENnZGk3Ti1nY1FheXJBWVVTcjhnSWVMZ3Q5cXhscmZ2eEdYYlEzUVNRd2JKVmlDLXdfWTdTT2gtUUpqNmxzZ0N0a3h3em1fdlRWYUhaWEpHdW5FUlFKbjIycENkd1JFZThFZ1FGVXdDYzlSaHpKRWVuQlY5ZDZMRUlZS2lzeUU0SnMtWUljVzlDVXlmeXF2dkNrWmJxNlZBcllCcUZ1ZWtId2JKbWVQVWdHYWhQWnR3QlBBQ1hLaHdLaWhjQU9Fd3BrNjZaYXBiczk2VVpXYUFoQjRkRnN6RktVTEQtRUplcWpMSGU3ZUxLaHpvZHBkU2k2Q3RrUEp3TEJZTmhxTVhnRVR0TXVxNTViN2hDSE5LQ2JaSkcxaXN6SzlRUmJVRmxuOHdxa1ptMThtZTc4MlNhbFpvQzBXNlM3T0x1clM4aXA3clQ0TmZsOUh4T2YtVW4xYjRLQ2xrOXZZN0RrTjlza3hFWW41dkJuV1hqeFVWdUtaTGRiOG1TZmFEelJjSWxiN0ZqclRMcUVkNl9lVkFaaVhLRlpqYUJ1d0J2X3F0MVRtVTZreWJQdVVYMnVVOTVVdFVmdzJzbXBYQkRfQ1VzcjFTNmRMTEVWdUs4MFpTSF9fUjVRZE1wSDJwQm82N2NGcHJEZnppX2JZeXpnX0hWXS0tPjwvZz48L3N2Zz4=;" vertex="1" parent="WIyWlLk6GJQsqaUBKTNV-1">
            <mxGeometry x="320" y="270" width="178" height="112" as="geometry" />
          </mxCell>
        </UserObject>
        <UserObject label="" plantUmlData="{&#xa;  &quot;data&quot;: &quot;from typing import List\n\nclass TypePokemon:\n    def __init__(self, nom: str):\n        self.nom = nom\n\nclass Pokemon:\n    def __init__(self, nom: str, pointsDeVie: int, niveau: int, puissanceAttaque: int, defense: int, types: List[TypePokemon]):\n        self.nom = nom\n        self.pointsDeVie = pointsDeVie\n        self.niveau = niveau\n        self.puissanceAttaque = puissanceAttaque\n        self.defense = defense\n        self.types = types\n\n    def evoluer(self):\n        # Implémentation de l&#39;évolution du Pokémon\n        pass\n\nclass Combat:\n    def __init__(self, pokemonJoueur: Pokemon, pokemonAdversaire: Pokemon):\n        self.pokemonJoueur = pokemonJoueur\n        self.pokemonAdversaire = pokemonAdversaire\n\n    def getPuissanceAttaqueAdversaire(self, typeAdversaire: TypePokemon) -&gt; int:\n        # Implémentation de la récupération de la puissance d&#39;attaque de l&#39;adversaire\n        pass\n\n    def enleverPointsDeVie(self, defenseAdversaire: int):\n        # Implémentation de la réduction des points de vie en fonction de la défense\n        pass\n\n    def determinerVainqueur(self) -&gt; str:\n        # Implémentation de la logique pour déterminer le vainqueur\n        pass\n\n    def enregistrerDansPokedex(self, pokedex):\n        # Implémentation de l&#39;enregistrement dans le Pokédex\n        pass\n\nclass Pokedex:\n    def __init__(self):\n        self.listePokemons = []\n\n    def afficherListePokemons(self):\n        # Implémentation de l&#39;affichage de la liste des Pokémon dans le Pokédex\n        pass\n\n    def enregistrerPokemon(self, pokemon: Pokemon):\n        # Implémentation de l&#39;enregistrement d&#39;un Pokémon dans le Pokédex\n        pass\n\nclass Menu:\n    def lancerPartie(self):\n        # Implémentation du lancement d&#39;une partie\n        pass\n\n    def ajouterPokemon(self, pokemon: Pokemon, fichier: str):\n        # Implémentation de l&#39;ajout d&#39;un Pokémon au fichier \&quot;pokemon.json\&quot;\n        pass\n\n    def accederPokedex(self, pokedex):\n        # Implémentation de l&#39;accès au Pokédex\n        pass\n&quot;,&#xa;  &quot;format&quot;: &quot;svg&quot;&#xa;}" id="nK76cGi7IdD_Ol3fB3Zy-1">
          <mxCell style="shape=image;noLabel=1;verticalAlign=top;aspect=fixed;imageAspect=0;image=data:image/svg+xml,PD94bWwgdmVyc2lvbj0iMS4wIiBlbmNvZGluZz0idXMtYXNjaWkiIHN0YW5kYWxvbmU9Im5vIj8+PHN2ZyB4bWxucz0iaHR0cDovL3d3dy53My5vcmcvMjAwMC9zdmciIHhtbG5zOnhsaW5rPSJodHRwOi8vd3d3LnczLm9yZy8xOTk5L3hsaW5rIiBjb250ZW50U3R5bGVUeXBlPSJ0ZXh0L2NzcyIgaGVpZ2h0PSIxMTJweCIgcHJlc2VydmVBc3BlY3RSYXRpbz0ibm9uZSIgc3R5bGU9IndpZHRoOjE3OHB4O2hlaWdodDoxMTJweDtiYWNrZ3JvdW5kOiMwMDAwMDA7IiB2ZXJzaW9uPSIxLjEiIHZpZXdCb3g9IjAgMCAxNzggMTEyIiB3aWR0aD0iMTc4cHgiIHpvb21BbmRQYW49Im1hZ25pZnkiPjxkZWZzLz48Zz48cmVjdCBmaWxsPSIjMjAxOTFGIiBoZWlnaHQ9IjEiIHN0eWxlPSJzdHJva2U6IzIwMTkxRjtzdHJva2Utd2lkdGg6MS4wOyIgd2lkdGg9IjEiIHg9IjAiIHk9IjAiLz48dGV4dCBmaWxsPSIjMzNGRjAyIiBmb250LWZhbWlseT0ic2Fucy1zZXJpZiIgZm9udC1zaXplPSIxMiIgZm9udC1zdHlsZT0iaXRhbGljIiBmb250LXdlaWdodD0iYm9sZCIgbGVuZ3RoQWRqdXN0PSJzcGFjaW5nIiB0ZXh0TGVuZ3RoPSIxMTMiIHg9IjUiIHk9IjE3Ij5QbGFudFVNTCAxLjIwMjMuMTM8L3RleHQ+PHJlY3QgZmlsbD0iIzMzRkYwMiIgaGVpZ2h0PSIxOS45ODQ0IiBzdHlsZT0ic3Ryb2tlOiMzM0ZGMDI7c3Ryb2tlLXdpZHRoOjEuMDsiIHdpZHRoPSIxNjYiIHg9IjUiIHk9IjI1Ljg0MzgiLz48dGV4dCBmaWxsPSIjMDAwMDAwIiBmb250LWZhbWlseT0ic2Fucy1zZXJpZiIgZm9udC1zaXplPSIxNCIgZm9udC13ZWlnaHQ9ImJvbGQiIGxlbmd0aEFkanVzdD0ic3BhY2luZyIgdGV4dExlbmd0aD0iMTY0IiB4PSI2IiB5PSI0MC44NDM4Ij5bRnJvbSBzdHJpbmcgKGxpbmUgMikgXTwvdGV4dD48dGV4dCBmaWxsPSIjMzNGRjAyIiBmb250LWZhbWlseT0ic2Fucy1zZXJpZiIgZm9udC1zaXplPSIxNCIgZm9udC13ZWlnaHQ9ImJvbGQiIGxlbmd0aEFkanVzdD0ic3BhY2luZyIgdGV4dExlbmd0aD0iNyIgeD0iNSIgeT0iNTkuODI4MSI+JiMxNjA7PC90ZXh0Pjx0ZXh0IGZpbGw9IiMzM0ZGMDIiIGZvbnQtZmFtaWx5PSJzYW5zLXNlcmlmIiBmb250LXNpemU9IjE0IiBmb250LXdlaWdodD0iYm9sZCIgbGVuZ3RoQWRqdXN0PSJzcGFjaW5nIiB0ZXh0TGVuZ3RoPSI2NCIgeD0iNSIgeT0iNzQuODEyNSI+QHN0YXJ0dW1sPC90ZXh0Pjx0ZXh0IGZpbGw9IiMzM0ZGMDIiIGZvbnQtZmFtaWx5PSJzYW5zLXNlcmlmIiBmb250LXNpemU9IjE0IiBmb250LXdlaWdodD0iYm9sZCIgbGVuZ3RoQWRqdXN0PSJzcGFjaW5nIiB0ZXh0LWRlY29yYXRpb249IndhdnkgdW5kZXJsaW5lIiB0ZXh0TGVuZ3RoPSIxNjMiIHg9IjUiIHk9Ijg5Ljc5NjkiPmZyb20gdHlwaW5nIGltcG9ydCBMaXN0PC90ZXh0Pjx0ZXh0IGZpbGw9IiNGRjAwMDAiIGZvbnQtZmFtaWx5PSJzYW5zLXNlcmlmIiBmb250LXNpemU9IjE0IiBmb250LXdlaWdodD0iYm9sZCIgbGVuZ3RoQWRqdXN0PSJzcGFjaW5nIiB0ZXh0TGVuZ3RoPSI5MSIgeD0iMTIiIHk9IjEwNC43ODEzIj5TeW50YXggRXJyb3I/PC90ZXh0PjwhLS1TUkM9W2RMTEJSamltNER0eDU4RHF1SGZtU20wM0JIMHFjbk9mdTRNSEpIME9oM0hJY0tnYW1lX0h0QVctWG94TTZPZ0lBQzZnWk1lWmFKRHlWRkZjM0xHT05PRHhRd0dnR1RRRERXdVVmN01oTExPOVEtN3hNdUR4X0dqaGhOT2hlMlY3MFd1N2dRR3g3RHZSaDhlakE1dGxtM2dwd0pCdXVTMGp4U0Q3WmxQV3JtOWplVDVJRU5rRlpuOXRHOXlLYXFTS0ZZdVFCd3FMQWlDeHZ5SWh4dEM4NGZOakxyR0tzYnNldllhZnV0Y1B2Y0d4ZUszWFAzS3g3TlduR0ZZT09TbnVDajFpUXRlV0xhMXZ5TWlRM1lMSENCbk5XdW51cjlMNzRySENnZGk3Ti1nY1FheXJBWVVTcjhnSWVMZ3Q5cXhscmZ2eEdYYlEzUVNRd2JKVmlDLXdfWTdTT2gtUUpqNmxzZ0N0a3h3em1fdlRWYUhaWEpHdW5FUlFKbjIycENkd1JFZThFZ1FGVXdDYzlSaHpKRWVuQlY5ZDZMRUlZS2lzeUU0SnMtWUljVzlDVXlmeXF2dkNrWmJxNlZBcllCcUZ1ZWtId2JKbWVQVWdHYWhQWnR3QlBBQ1hLaHdLaWhjQU9Fd3BrNjZaYXBiczk2VVpXYUFoQjRkRnN6RktVTEQtRUplcWpMSGU3ZUxLaHpvZHBkU2k2Q3RrUEp3TEJZTmhxTVhnRVR0TXVxNTViN2hDSE5LQ2JaSkcxaXN6SzlRUmJVRmxuOHdxa1ptMThtZTc4MlNhbFpvQzBXNlM3T0x1clM4aXA3clQ0TmZsOUh4T2YtVW4xYjRLQ2xrOXZZN0RrTjlza3hFWW41dkJuV1hqeFVWdUtaTGRiOG1TZmFEelJjSWxiN0ZqclRMcUVkNl9lVkFaaVhLRlpqYUJ1d0J2X3F0MVRtVTZreWJQdVVYMnVVOTVVdFVmdzJzbXBYQkRfQ1VzcjFTNmRMTEVWdUs4MFpTSF9fUjVRZE1wSDJwQm82N2NGcHJEZnppX2JZeXpnX0hWXS0tPjwvZz48L3N2Zz4=;" vertex="1" parent="WIyWlLk6GJQsqaUBKTNV-1">
            <mxGeometry x="320" y="270" width="178" height="112" as="geometry" />
          </mxCell>
        </UserObject>
        <UserObject label="" plantUmlData="{&#xa;  &quot;data&quot;: &quot;from typing import List\n\nclass TypePokemon:\n    def __init__(self, nom: str):\n        self.nom = nom\n\nclass Pokemon:\n    def __init__(self, nom: str, pointsDeVie: int, niveau: int, puissanceAttaque: int, defense: int, types: List[TypePokemon]):\n        self.nom = nom\n        self.pointsDeVie = pointsDeVie\n        self.niveau = niveau\n        self.puissanceAttaque = puissanceAttaque\n        self.defense = defense\n        self.types = types\n\n    def evoluer(self):\n        # Implémentation de l&#39;évolution du Pokémon\n        pass\n\nclass Combat:\n    def __init__(self, pokemonJoueur: Pokemon, pokemonAdversaire: Pokemon):\n        self.pokemonJoueur = pokemonJoueur\n        self.pokemonAdversaire = pokemonAdversaire\n\n    def getPuissanceAttaqueAdversaire(self, typeAdversaire: TypePokemon) -&gt; int:\n        # Implémentation de la récupération de la puissance d&#39;attaque de l&#39;adversaire\n        pass\n\n    def enleverPointsDeVie(self, defenseAdversaire: int):\n        # Implémentation de la réduction des points de vie en fonction de la défense\n        pass\n\n    def determinerVainqueur(self) -&gt; str:\n        # Implémentation de la logique pour déterminer le vainqueur\n        pass\n\n    def enregistrerDansPokedex(self, pokedex):\n        # Implémentation de l&#39;enregistrement dans le Pokédex\n        pass\n\nclass Pokedex:\n    def __init__(self):\n        self.listePokemons = []\n\n    def afficherListePokemons(self):\n        # Implémentation de l&#39;affichage de la liste des Pokémon dans le Pokédex\n        pass\n\n    def enregistrerPokemon(self, pokemon: Pokemon):\n        # Implémentation de l&#39;enregistrement d&#39;un Pokémon dans le Pokédex\n        pass\n\nclass Menu:\n    def lancerPartie(self):\n        # Implémentation du lancement d&#39;une partie\n        pass\n\n    def ajouterPokemon(self, pokemon: Pokemon, fichier: str):\n        # Implémentation de l&#39;ajout d&#39;un Pokémon au fichier \&quot;pokemon.json\&quot;\n        pass\n\n    def accederPokedex(self, pokedex):\n        # Implémentation de l&#39;accès au Pokédex\n        pass\n&quot;,&#xa;  &quot;format&quot;: &quot;svg&quot;&#xa;}" id="nK76cGi7IdD_Ol3fB3Zy-2">
          <mxCell style="shape=image;noLabel=1;verticalAlign=top;aspect=fixed;imageAspect=0;image=data:image/svg+xml,PD94bWwgdmVyc2lvbj0iMS4wIiBlbmNvZGluZz0idXMtYXNjaWkiIHN0YW5kYWxvbmU9Im5vIj8+PHN2ZyB4bWxucz0iaHR0cDovL3d3dy53My5vcmcvMjAwMC9zdmciIHhtbG5zOnhsaW5rPSJodHRwOi8vd3d3LnczLm9yZy8xOTk5L3hsaW5rIiBjb250ZW50U3R5bGVUeXBlPSJ0ZXh0L2NzcyIgaGVpZ2h0PSIxMTJweCIgcHJlc2VydmVBc3BlY3RSYXRpbz0ibm9uZSIgc3R5bGU9IndpZHRoOjE3OHB4O2hlaWdodDoxMTJweDtiYWNrZ3JvdW5kOiMwMDAwMDA7IiB2ZXJzaW9uPSIxLjEiIHZpZXdCb3g9IjAgMCAxNzggMTEyIiB3aWR0aD0iMTc4cHgiIHpvb21BbmRQYW49Im1hZ25pZnkiPjxkZWZzLz48Zz48cmVjdCBmaWxsPSIjMjAxOTFGIiBoZWlnaHQ9IjEiIHN0eWxlPSJzdHJva2U6IzIwMTkxRjtzdHJva2Utd2lkdGg6MS4wOyIgd2lkdGg9IjEiIHg9IjAiIHk9IjAiLz48dGV4dCBmaWxsPSIjMzNGRjAyIiBmb250LWZhbWlseT0ic2Fucy1zZXJpZiIgZm9udC1zaXplPSIxMiIgZm9udC1zdHlsZT0iaXRhbGljIiBmb250LXdlaWdodD0iYm9sZCIgbGVuZ3RoQWRqdXN0PSJzcGFjaW5nIiB0ZXh0TGVuZ3RoPSIxMTMiIHg9IjUiIHk9IjE3Ij5QbGFudFVNTCAxLjIwMjMuMTM8L3RleHQ+PHJlY3QgZmlsbD0iIzMzRkYwMiIgaGVpZ2h0PSIxOS45ODQ0IiBzdHlsZT0ic3Ryb2tlOiMzM0ZGMDI7c3Ryb2tlLXdpZHRoOjEuMDsiIHdpZHRoPSIxNjYiIHg9IjUiIHk9IjI1Ljg0MzgiLz48dGV4dCBmaWxsPSIjMDAwMDAwIiBmb250LWZhbWlseT0ic2Fucy1zZXJpZiIgZm9udC1zaXplPSIxNCIgZm9udC13ZWlnaHQ9ImJvbGQiIGxlbmd0aEFkanVzdD0ic3BhY2luZyIgdGV4dExlbmd0aD0iMTY0IiB4PSI2IiB5PSI0MC44NDM4Ij5bRnJvbSBzdHJpbmcgKGxpbmUgMikgXTwvdGV4dD48dGV4dCBmaWxsPSIjMzNGRjAyIiBmb250LWZhbWlseT0ic2Fucy1zZXJpZiIgZm9udC1zaXplPSIxNCIgZm9udC13ZWlnaHQ9ImJvbGQiIGxlbmd0aEFkanVzdD0ic3BhY2luZyIgdGV4dExlbmd0aD0iNyIgeD0iNSIgeT0iNTkuODI4MSI+JiMxNjA7PC90ZXh0Pjx0ZXh0IGZpbGw9IiMzM0ZGMDIiIGZvbnQtZmFtaWx5PSJzYW5zLXNlcmlmIiBmb250LXNpemU9IjE0IiBmb250LXdlaWdodD0iYm9sZCIgbGVuZ3RoQWRqdXN0PSJzcGFjaW5nIiB0ZXh0TGVuZ3RoPSI2NCIgeD0iNSIgeT0iNzQuODEyNSI+QHN0YXJ0dW1sPC90ZXh0Pjx0ZXh0IGZpbGw9IiMzM0ZGMDIiIGZvbnQtZmFtaWx5PSJzYW5zLXNlcmlmIiBmb250LXNpemU9IjE0IiBmb250LXdlaWdodD0iYm9sZCIgbGVuZ3RoQWRqdXN0PSJzcGFjaW5nIiB0ZXh0LWRlY29yYXRpb249IndhdnkgdW5kZXJsaW5lIiB0ZXh0TGVuZ3RoPSIxNjMiIHg9IjUiIHk9Ijg5Ljc5NjkiPmZyb20gdHlwaW5nIGltcG9ydCBMaXN0PC90ZXh0Pjx0ZXh0IGZpbGw9IiNGRjAwMDAiIGZvbnQtZmFtaWx5PSJzYW5zLXNlcmlmIiBmb250LXNpemU9IjE0IiBmb250LXdlaWdodD0iYm9sZCIgbGVuZ3RoQWRqdXN0PSJzcGFjaW5nIiB0ZXh0TGVuZ3RoPSI5MSIgeD0iMTIiIHk9IjEwNC43ODEzIj5TeW50YXggRXJyb3I/PC90ZXh0PjwhLS1TUkM9W2RMTEJSamltNER0eDU4RHF1SGZtU20wM0JIMHFjbk9mdTRNSEpIME9oM0hJY0tnYW1lX0h0QVctWG94TTZPZ0lBQzZnWk1lWmFKRHlWRkZjM0xHT05PRHhRd0dnR1RRRERXdVVmN01oTExPOVEtN3hNdUR4X0dqaGhOT2hlMlY3MFd1N2dRR3g3RHZSaDhlakE1dGxtM2dwd0pCdXVTMGp4U0Q3WmxQV3JtOWplVDVJRU5rRlpuOXRHOXlLYXFTS0ZZdVFCd3FMQWlDeHZ5SWh4dEM4NGZOakxyR0tzYnNldllhZnV0Y1B2Y0d4ZUszWFAzS3g3TlduR0ZZT09TbnVDajFpUXRlV0xhMXZ5TWlRM1lMSENCbk5XdW51cjlMNzRySENnZGk3Ti1nY1FheXJBWVVTcjhnSWVMZ3Q5cXhscmZ2eEdYYlEzUVNRd2JKVmlDLXdfWTdTT2gtUUpqNmxzZ0N0a3h3em1fdlRWYUhaWEpHdW5FUlFKbjIycENkd1JFZThFZ1FGVXdDYzlSaHpKRWVuQlY5ZDZMRUlZS2lzeUU0SnMtWUljVzlDVXlmeXF2dkNrWmJxNlZBcllCcUZ1ZWtId2JKbWVQVWdHYWhQWnR3QlBBQ1hLaHdLaWhjQU9Fd3BrNjZaYXBiczk2VVpXYUFoQjRkRnN6RktVTEQtRUplcWpMSGU3ZUxLaHpvZHBkU2k2Q3RrUEp3TEJZTmhxTVhnRVR0TXVxNTViN2hDSE5LQ2JaSkcxaXN6SzlRUmJVRmxuOHdxa1ptMThtZTc4MlNhbFpvQzBXNlM3T0x1clM4aXA3clQ0TmZsOUh4T2YtVW4xYjRLQ2xrOXZZN0RrTjlza3hFWW41dkJuV1hqeFVWdUtaTGRiOG1TZmFEelJjSWxiN0ZqclRMcUVkNl9lVkFaaVhLRlpqYUJ1d0J2X3F0MVRtVTZreWJQdVVYMnVVOTVVdFVmdzJzbXBYQkRfQ1VzcjFTNmRMTEVWdUs4MFpTSF9fUjVRZE1wSDJwQm82N2NGcHJEZnppX2JZeXpnX0hWXS0tPjwvZz48L3N2Zz4=;" vertex="1" parent="WIyWlLk6GJQsqaUBKTNV-1">
            <mxGeometry x="320" y="270" width="178" height="112" as="geometry" />
          </mxCell>
        </UserObject>
        <UserObject label="" plantUmlData="{&#xa;  &quot;data&quot;: &quot;from typing import List\n\nclass TypePokemon:\n    def __init__(self, nom: str):\n        self.nom = nom\n\nclass Pokemon:\n    def __init__(self, nom: str, pointsDeVie: int, niveau: int, puissanceAttaque: int, defense: int, types: List[TypePokemon]):\n        self.nom = nom\n        self.pointsDeVie = pointsDeVie\n        self.niveau = niveau\n        self.puissanceAttaque = puissanceAttaque\n        self.defense = defense\n        self.types = types\n\n    def evoluer(self):\n        # Implémentation de l&#39;évolution du Pokémon\n        pass\n\nclass Combat:\n    def __init__(self, pokemonJoueur: Pokemon, pokemonAdversaire: Pokemon):\n        self.pokemonJoueur = pokemonJoueur\n        self.pokemonAdversaire = pokemonAdversaire\n\n    def getPuissanceAttaqueAdversaire(self, typeAdversaire: TypePokemon) -&gt; int:\n        # Implémentation de la récupération de la puissance d&#39;attaque de l&#39;adversaire\n        pass\n\n    def enleverPointsDeVie(self, defenseAdversaire: int):\n        # Implémentation de la réduction des points de vie en fonction de la défense\n        pass\n\n    def determinerVainqueur(self) -&gt; str:\n        # Implémentation de la logique pour déterminer le vainqueur\n        pass\n\n    def enregistrerDansPokedex(self, pokedex):\n        # Implémentation de l&#39;enregistrement dans le Pokédex\n        pass\n\nclass Pokedex:\n    def __init__(self):\n        self.listePokemons = []\n\n    def afficherListePokemons(self):\n        # Implémentation de l&#39;affichage de la liste des Pokémon dans le Pokédex\n        pass\n\n    def enregistrerPokemon(self, pokemon: Pokemon):\n        # Implémentation de l&#39;enregistrement d&#39;un Pokémon dans le Pokédex\n        pass\n\nclass Menu:\n    def lancerPartie(self):\n        # Implémentation du lancement d&#39;une partie\n        pass\n\n    def ajouterPokemon(self, pokemon: Pokemon, fichier: str):\n        # Implémentation de l&#39;ajout d&#39;un Pokémon au fichier \&quot;pokemon.json\&quot;\n        pass\n\n    def accederPokedex(self, pokedex):\n        # Implémentation de l&#39;accès au Pokédex\n        pass\n&quot;,&#xa;  &quot;format&quot;: &quot;svg&quot;&#xa;}" id="nK76cGi7IdD_Ol3fB3Zy-3">
          <mxCell style="shape=image;noLabel=1;verticalAlign=top;aspect=fixed;imageAspect=0;image=data:image/svg+xml,PD94bWwgdmVyc2lvbj0iMS4wIiBlbmNvZGluZz0idXMtYXNjaWkiIHN0YW5kYWxvbmU9Im5vIj8+PHN2ZyB4bWxucz0iaHR0cDovL3d3dy53My5vcmcvMjAwMC9zdmciIHhtbG5zOnhsaW5rPSJodHRwOi8vd3d3LnczLm9yZy8xOTk5L3hsaW5rIiBjb250ZW50U3R5bGVUeXBlPSJ0ZXh0L2NzcyIgaGVpZ2h0PSIxMTJweCIgcHJlc2VydmVBc3BlY3RSYXRpbz0ibm9uZSIgc3R5bGU9IndpZHRoOjE3OHB4O2hlaWdodDoxMTJweDtiYWNrZ3JvdW5kOiMwMDAwMDA7IiB2ZXJzaW9uPSIxLjEiIHZpZXdCb3g9IjAgMCAxNzggMTEyIiB3aWR0aD0iMTc4cHgiIHpvb21BbmRQYW49Im1hZ25pZnkiPjxkZWZzLz48Zz48cmVjdCBmaWxsPSIjMjAxOTFGIiBoZWlnaHQ9IjEiIHN0eWxlPSJzdHJva2U6IzIwMTkxRjtzdHJva2Utd2lkdGg6MS4wOyIgd2lkdGg9IjEiIHg9IjAiIHk9IjAiLz48dGV4dCBmaWxsPSIjMzNGRjAyIiBmb250LWZhbWlseT0ic2Fucy1zZXJpZiIgZm9udC1zaXplPSIxMiIgZm9udC1zdHlsZT0iaXRhbGljIiBmb250LXdlaWdodD0iYm9sZCIgbGVuZ3RoQWRqdXN0PSJzcGFjaW5nIiB0ZXh0TGVuZ3RoPSIxMTMiIHg9IjUiIHk9IjE3Ij5QbGFudFVNTCAxLjIwMjMuMTM8L3RleHQ+PHJlY3QgZmlsbD0iIzMzRkYwMiIgaGVpZ2h0PSIxOS45ODQ0IiBzdHlsZT0ic3Ryb2tlOiMzM0ZGMDI7c3Ryb2tlLXdpZHRoOjEuMDsiIHdpZHRoPSIxNjYiIHg9IjUiIHk9IjI1Ljg0MzgiLz48dGV4dCBmaWxsPSIjMDAwMDAwIiBmb250LWZhbWlseT0ic2Fucy1zZXJpZiIgZm9udC1zaXplPSIxNCIgZm9udC13ZWlnaHQ9ImJvbGQiIGxlbmd0aEFkanVzdD0ic3BhY2luZyIgdGV4dExlbmd0aD0iMTY0IiB4PSI2IiB5PSI0MC44NDM4Ij5bRnJvbSBzdHJpbmcgKGxpbmUgMikgXTwvdGV4dD48dGV4dCBmaWxsPSIjMzNGRjAyIiBmb250LWZhbWlseT0ic2Fucy1zZXJpZiIgZm9udC1zaXplPSIxNCIgZm9udC13ZWlnaHQ9ImJvbGQiIGxlbmd0aEFkanVzdD0ic3BhY2luZyIgdGV4dExlbmd0aD0iNyIgeD0iNSIgeT0iNTkuODI4MSI+JiMxNjA7PC90ZXh0Pjx0ZXh0IGZpbGw9IiMzM0ZGMDIiIGZvbnQtZmFtaWx5PSJzYW5zLXNlcmlmIiBmb250LXNpemU9IjE0IiBmb250LXdlaWdodD0iYm9sZCIgbGVuZ3RoQWRqdXN0PSJzcGFjaW5nIiB0ZXh0TGVuZ3RoPSI2NCIgeD0iNSIgeT0iNzQuODEyNSI+QHN0YXJ0dW1sPC90ZXh0Pjx0ZXh0IGZpbGw9IiMzM0ZGMDIiIGZvbnQtZmFtaWx5PSJzYW5zLXNlcmlmIiBmb250LXNpemU9IjE0IiBmb250LXdlaWdodD0iYm9sZCIgbGVuZ3RoQWRqdXN0PSJzcGFjaW5nIiB0ZXh0LWRlY29yYXRpb249IndhdnkgdW5kZXJsaW5lIiB0ZXh0TGVuZ3RoPSIxNjMiIHg9IjUiIHk9Ijg5Ljc5NjkiPmZyb20gdHlwaW5nIGltcG9ydCBMaXN0PC90ZXh0Pjx0ZXh0IGZpbGw9IiNGRjAwMDAiIGZvbnQtZmFtaWx5PSJzYW5zLXNlcmlmIiBmb250LXNpemU9IjE0IiBmb250LXdlaWdodD0iYm9sZCIgbGVuZ3RoQWRqdXN0PSJzcGFjaW5nIiB0ZXh0TGVuZ3RoPSI5MSIgeD0iMTIiIHk9IjEwNC43ODEzIj5TeW50YXggRXJyb3I/PC90ZXh0PjwhLS1TUkM9W2RMTEJSamltNER0eDU4RHF1SGZtU20wM0JIMHFjbk9mdTRNSEpIME9oM0hJY0tnYW1lX0h0QVctWG94TTZPZ0lBQzZnWk1lWmFKRHlWRkZjM0xHT05PRHhRd0dnR1RRRERXdVVmN01oTExPOVEtN3hNdUR4X0dqaGhOT2hlMlY3MFd1N2dRR3g3RHZSaDhlakE1dGxtM2dwd0pCdXVTMGp4U0Q3WmxQV3JtOWplVDVJRU5rRlpuOXRHOXlLYXFTS0ZZdVFCd3FMQWlDeHZ5SWh4dEM4NGZOakxyR0tzYnNldllhZnV0Y1B2Y0d4ZUszWFAzS3g3TlduR0ZZT09TbnVDajFpUXRlV0xhMXZ5TWlRM1lMSENCbk5XdW51cjlMNzRySENnZGk3Ti1nY1FheXJBWVVTcjhnSWVMZ3Q5cXhscmZ2eEdYYlEzUVNRd2JKVmlDLXdfWTdTT2gtUUpqNmxzZ0N0a3h3em1fdlRWYUhaWEpHdW5FUlFKbjIycENkd1JFZThFZ1FGVXdDYzlSaHpKRWVuQlY5ZDZMRUlZS2lzeUU0SnMtWUljVzlDVXlmeXF2dkNrWmJxNlZBcllCcUZ1ZWtId2JKbWVQVWdHYWhQWnR3QlBBQ1hLaHdLaWhjQU9Fd3BrNjZaYXBiczk2VVpXYUFoQjRkRnN6RktVTEQtRUplcWpMSGU3ZUxLaHpvZHBkU2k2Q3RrUEp3TEJZTmhxTVhnRVR0TXVxNTViN2hDSE5LQ2JaSkcxaXN6SzlRUmJVRmxuOHdxa1ptMThtZTc4MlNhbFpvQzBXNlM3T0x1clM4aXA3clQ0TmZsOUh4T2YtVW4xYjRLQ2xrOXZZN0RrTjlza3hFWW41dkJuV1hqeFVWdUtaTGRiOG1TZmFEelJjSWxiN0ZqclRMcUVkNl9lVkFaaVhLRlpqYUJ1d0J2X3F0MVRtVTZreWJQdVVYMnVVOTVVdFVmdzJzbXBYQkRfQ1VzcjFTNmRMTEVWdUs4MFpTSF9fUjVRZE1wSDJwQm82N2NGcHJEZnppX2JZeXpnX0hWXS0tPjwvZz48L3N2Zz4=;" vertex="1" parent="WIyWlLk6GJQsqaUBKTNV-1">
            <mxGeometry x="320" y="270" width="178" height="112" as="geometry" />
          </mxCell>
        </UserObject>
      </root>
    </mxGraphModel>
  </diagram>
</mxfile>
